<?xml version="1.0" encoding="UTF-8" standalone="no"?><!DOCTYPE svg PUBLIC "-//W3C//DTD SVG 1.1//EN" "http://www.w3.org/Graphics/SVG/1.1/DTD/svg11.dtd"><svg width="100%" height="100%" viewBox="0 0 256 256" version="1.1" xmlns="http://www.w3.org/2000/svg" xmlns:xlink="http://www.w3.org/1999/xlink" xml:space="preserve" xmlns:serif="http://www.serif.com/" style="fill-rule:evenodd;clip-rule:evenodd;stroke-linejoin:round;stroke-miterlimit:1.41421;"><rect id="Logo" x="0" y="0" width="256" height="256" style="fill:none;"/><clipPath id="_clip1"><rect x="0" y="0" width="256" height="256"/></clipPath><g clip-path="url(#_clip1)"><g><path d="M128,0c31.627,0 128,96.373 128,128c0,31.627 -96.373,128 -128,128c-31.627,0 -128,-96.373 -128,-128c0,-31.627 96.373,-128 128,-128Z" style="fill:#f5e6e8;"/><path d="M128,7.967c29.658,0 120.033,90.375 120.033,120.033c0,29.658 -90.375,120.033 -120.033,120.033c-29.658,0 -120.033,-90.375 -120.033,-120.033c0,-29.658 90.375,-120.033 120.033,-120.033Z" style="fill:#f5e6e8;"/><clipPath id="_clip2"><path d="M128,7.967c29.658,0 120.033,90.375 120.033,120.033c0,29.658 -90.375,120.033 -120.033,120.033c-29.658,0 -120.033,-90.375 -120.033,-120.033c0,-29.658 90.375,-120.033 120.033,-120.033Z"/></clipPath><g clip-path="url(#_clip2)"><path d="M0.475,184.191l255.05,-102.173l0,173.451l-255.05,0l0,-71.278Z" style="fill:#d5c6e0;"/><rect x="48.478" y="115.917" width="76.208" height="26.397" style="fill:#192a51;fill-rule:nonzero;"/><rect x="146.823" y="115.917" width="42.198" height="26.397" style="fill:#192a51;fill-rule:nonzero;"/><rect x="38.48" y="44.534" width="23.422" height="166.931" style="fill:#192a51;fill-rule:nonzero;"/><rect x="115.909" y="44.534" width="23.422" height="166.931" style="fill:#192a51;fill-rule:nonzero;"/></g><rect x="38.48" y="44.534" width="23.422" height="83.466" style="fill:#192a51;fill-rule:nonzero;"/><path d="M206.494,211.466l-59.671,-166.932l24.723,0l59.672,166.932l-24.724,0Z" style="fill:#192a51;fill-rule:nonzero;"/></g></g></svg>