<svg viewBox="0 0 256 256" xmlns="http://www.w3.org/2000/svg" fill-rule="evenodd" clip-rule="evenodd" stroke-linejoin="round" stroke-miterlimit="1.414"><path fill="none" d="M0 0h256v256H0z"/><clipPath id="a"><path d="M0 0h256v256H0z"/></clipPath><g clip-path="url(#a)"><path d="M128 0c31.627 0 128 96.373 128 128 0 31.627-96.373 128-128 128C96.373 256 0 159.627 0 128 0 96.373 96.373 0 128 0z" fill="#f5e6e8"/><path d="M128 7.967c29.658 0 120.033 90.375 120.033 120.033S157.658 248.033 128 248.033 7.967 157.658 7.967 128 98.342 7.967 128 7.967z" fill="#f5e6e8"/><clipPath id="b"><path d="M128 7.967c29.658 0 120.033 90.375 120.033 120.033S157.658 248.033 128 248.033 7.967 157.658 7.967 128 98.342 7.967 128 7.967z"/></clipPath><g clip-path="url(#b)"><path d="M.475 184.191l255.05-102.173v173.451H.475v-71.278z" fill="#d5c6e0"/><path fill="#192a51" fill-rule="nonzero" d="M48.478 115.917h76.208v26.397H48.478zm98.345 0h42.198v26.397h-42.198z"/><path fill="#192a51" fill-rule="nonzero" d="M38.48 44.534h23.422v166.931H38.48zm77.429 0h23.422v166.931h-23.422z"/></g><path fill="#192a51" fill-rule="nonzero" d="M38.48 44.534h23.422V128H38.48zm168.014 166.932L146.823 44.534h24.723l59.672 166.932h-24.724z"/></g></svg>